<svg width="13" height="18" viewBox="0 0 13 18" fill="none" xmlns="http://www.w3.org/2000/svg">
<path d="M0.95177 4.52946L1.02415 11.9095C1.05346 14.8992 3.51002 17.3077 6.49967 17.2783C7.94243 17.2641 9.29689 16.6851 10.3138 15.648C11.1412 14.8042 11.6608 13.7428 11.8181 12.5996C11.8521 12.5559 11.8755 12.5031 11.8749 12.4432L11.793 4.13186C11.7834 3.16252 11.3945 2.25232 10.6976 1.56902C10.0007 0.885726 9.08308 0.5148 8.11373 0.52434C7.14439 0.53388 6.23407 0.922922 5.5509 1.61968C4.86772 2.31643 4.49667 3.23423 4.50621 4.20358C4.50637 4.2199 4.51282 4.23431 4.51607 4.24974C4.51325 4.26535 4.50708 4.27963 4.50712 4.29608L4.57791 11.5016C4.58292 12.0104 4.787 12.488 5.15255 12.8464C5.5181 13.2049 5.99966 13.3995 6.50845 13.3945C7.01724 13.3895 7.49487 13.1854 7.8533 12.8199C8.21173 12.4543 8.40636 11.9727 8.40136 11.464L8.33044 4.25833C8.32975 4.18833 8.30068 4.12505 8.25435 4.07961C8.20802 4.03418 8.14417 4.00637 8.07417 4.00705C7.93405 4.00856 7.82164 4.1232 7.82289 4.26333L7.89381 11.469C7.89748 11.8422 7.75439 12.1957 7.49087 12.4645C7.22735 12.7333 6.87657 12.8832 6.50345 12.8869C6.13021 12.8906 5.77668 12.7475 5.50791 12.484C5.23915 12.2205 5.08926 11.8697 5.08546 11.4966L5.01455 4.29097C5.01439 4.27464 5.00794 4.26023 5.00469 4.24481C5.00751 4.22919 5.01367 4.21491 5.01364 4.19846C4.99662 2.46952 6.38967 1.04878 8.1186 1.03177C8.9524 1.02356 9.74217 1.34306 10.3421 1.93133C10.9421 2.5196 11.2772 3.30281 11.2853 4.13674L11.3609 11.8075C11.3738 13.1145 10.8732 14.3523 9.9512 15.2926C9.02924 16.2329 7.80177 16.7577 6.4948 16.7706C3.78477 16.7971 1.55862 14.6141 1.53195 11.9045L1.45932 4.52447C1.45807 4.38435 1.34305 4.27181 1.20305 4.27319C1.0628 4.27457 0.950143 4.38922 0.95177 4.52946Z" fill="black" stroke="white"/>
</svg>
